<mxfile host="Electron" modified="2024-11-13T12:35:06.882Z" agent="Mozilla/5.0 (Windows NT 10.0; Win64; x64) AppleWebKit/537.36 (KHTML, like Gecko) draw.io/22.0.3 Chrome/114.0.5735.289 Electron/25.8.4 Safari/537.36" etag="DFT7XdL_0_hKmOA7QDl_" version="22.0.3" type="device">
  <diagram id="R2lEEEUBdFMjLlhIrx00" name="Page-1">
    <mxGraphModel dx="1687" dy="2084" grid="1" gridSize="10" guides="1" tooltips="1" connect="1" arrows="1" fold="1" page="1" pageScale="1" pageWidth="850" pageHeight="1100" math="0" shadow="0" extFonts="Permanent Marker^https://fonts.googleapis.com/css?family=Permanent+Marker">
      <root>
        <mxCell id="0" />
        <mxCell id="1" parent="0" />
        <mxCell id="Ua37z2g9hgZjBx6iVy2N-7" value="Dive_Sites" style="swimlane;whiteSpace=wrap;html=1;" vertex="1" parent="1">
          <mxGeometry x="40" y="80" width="160" height="190" as="geometry" />
        </mxCell>
        <mxCell id="Ua37z2g9hgZjBx6iVy2N-8" value="ID&lt;br&gt;Title&lt;br&gt;Lat&lt;br&gt;Long&lt;br&gt;Description&lt;br&gt;ImageURL&lt;br&gt;URL&lt;br&gt;Rating&lt;br&gt;Max_Depth" style="text;strokeColor=none;fillColor=none;align=left;verticalAlign=top;spacingLeft=4;spacingRight=4;overflow=hidden;points=[[0,0.5],[1,0.5]];portConstraint=eastwest;rotatable=0;whiteSpace=wrap;html=1;" vertex="1" parent="Ua37z2g9hgZjBx6iVy2N-7">
          <mxGeometry y="30" width="140" height="140" as="geometry" />
        </mxCell>
        <mxCell id="Ua37z2g9hgZjBx6iVy2N-9" value="Animals" style="swimlane;whiteSpace=wrap;html=1;" vertex="1" parent="1">
          <mxGeometry x="640" y="80" width="160" height="190" as="geometry" />
        </mxCell>
        <mxCell id="Ua37z2g9hgZjBx6iVy2N-10" value="ID&lt;br&gt;Scientific_Name&lt;br&gt;Common_Name&lt;br&gt;Dive_Sites_Name" style="text;strokeColor=none;fillColor=none;align=left;verticalAlign=top;spacingLeft=4;spacingRight=4;overflow=hidden;points=[[0,0.5],[1,0.5]];portConstraint=eastwest;rotatable=0;whiteSpace=wrap;html=1;" vertex="1" parent="Ua37z2g9hgZjBx6iVy2N-9">
          <mxGeometry y="30" width="140" height="160" as="geometry" />
        </mxCell>
        <mxCell id="Ua37z2g9hgZjBx6iVy2N-13" style="edgeStyle=orthogonalEdgeStyle;rounded=0;orthogonalLoop=1;jettySize=auto;html=1;exitX=0;exitY=0.5;exitDx=0;exitDy=0;entryX=1;entryY=0.5;entryDx=0;entryDy=0;endArrow=none;endFill=0;" edge="1" parent="1" source="Ua37z2g9hgZjBx6iVy2N-11" target="Ua37z2g9hgZjBx6iVy2N-7">
          <mxGeometry relative="1" as="geometry" />
        </mxCell>
        <mxCell id="Ua37z2g9hgZjBx6iVy2N-31" style="edgeStyle=orthogonalEdgeStyle;rounded=0;orthogonalLoop=1;jettySize=auto;html=1;exitX=0.5;exitY=1;exitDx=0;exitDy=0;entryX=0.5;entryY=0;entryDx=0;entryDy=0;endArrow=none;endFill=0;" edge="1" parent="1" source="Ua37z2g9hgZjBx6iVy2N-11" target="Ua37z2g9hgZjBx6iVy2N-30">
          <mxGeometry relative="1" as="geometry" />
        </mxCell>
        <mxCell id="Ua37z2g9hgZjBx6iVy2N-11" value="Occurrences" style="rhombus;whiteSpace=wrap;html=1;" vertex="1" parent="1">
          <mxGeometry x="320" y="135" width="200" height="80" as="geometry" />
        </mxCell>
        <mxCell id="Ua37z2g9hgZjBx6iVy2N-14" style="edgeStyle=orthogonalEdgeStyle;rounded=0;orthogonalLoop=1;jettySize=auto;html=1;exitX=1;exitY=0.5;exitDx=0;exitDy=0;endArrow=none;endFill=0;" edge="1" parent="1" source="Ua37z2g9hgZjBx6iVy2N-11">
          <mxGeometry relative="1" as="geometry">
            <mxPoint x="640" y="175" as="targetPoint" />
          </mxGeometry>
        </mxCell>
        <mxCell id="Ua37z2g9hgZjBx6iVy2N-17" value="o;n" style="edgeLabel;html=1;align=center;verticalAlign=middle;resizable=0;points=[];" vertex="1" connectable="0" parent="Ua37z2g9hgZjBx6iVy2N-14">
          <mxGeometry x="0.1366" y="-3" relative="1" as="geometry">
            <mxPoint x="32" y="-15" as="offset" />
          </mxGeometry>
        </mxCell>
        <mxCell id="Ua37z2g9hgZjBx6iVy2N-18" value="o;n" style="edgeLabel;html=1;align=center;verticalAlign=middle;resizable=0;points=[];" vertex="1" connectable="0" parent="1">
          <mxGeometry x="629.5247387288855" y="170.43739800878416" as="geometry">
            <mxPoint x="-413" y="-7" as="offset" />
          </mxGeometry>
        </mxCell>
        <mxCell id="Ua37z2g9hgZjBx6iVy2N-22" style="edgeStyle=orthogonalEdgeStyle;rounded=0;orthogonalLoop=1;jettySize=auto;html=1;exitX=0.5;exitY=1;exitDx=0;exitDy=0;entryX=0.5;entryY=0;entryDx=0;entryDy=0;endArrow=none;endFill=0;" edge="1" parent="1" source="Ua37z2g9hgZjBx6iVy2N-19" target="Ua37z2g9hgZjBx6iVy2N-20">
          <mxGeometry relative="1" as="geometry" />
        </mxCell>
        <mxCell id="Ua37z2g9hgZjBx6iVy2N-23" style="edgeStyle=orthogonalEdgeStyle;rounded=0;orthogonalLoop=1;jettySize=auto;html=1;exitX=0.5;exitY=0;exitDx=0;exitDy=0;entryX=0.5;entryY=1;entryDx=0;entryDy=0;endArrow=none;endFill=0;" edge="1" parent="1" source="Ua37z2g9hgZjBx6iVy2N-19" target="Ua37z2g9hgZjBx6iVy2N-7">
          <mxGeometry relative="1" as="geometry">
            <mxPoint x="170" y="300" as="targetPoint" />
          </mxGeometry>
        </mxCell>
        <mxCell id="Ua37z2g9hgZjBx6iVy2N-25" value="o;n" style="edgeLabel;html=1;align=center;verticalAlign=middle;resizable=0;points=[];" vertex="1" connectable="0" parent="Ua37z2g9hgZjBx6iVy2N-23">
          <mxGeometry x="0.12" y="1" relative="1" as="geometry">
            <mxPoint x="15" y="-10" as="offset" />
          </mxGeometry>
        </mxCell>
        <mxCell id="Ua37z2g9hgZjBx6iVy2N-19" value="Types_Per_Dive_Site" style="rhombus;whiteSpace=wrap;html=1;" vertex="1" parent="1">
          <mxGeometry x="20" y="320" width="200" height="80" as="geometry" />
        </mxCell>
        <mxCell id="Ua37z2g9hgZjBx6iVy2N-20" value="Types" style="swimlane;whiteSpace=wrap;html=1;startSize=23;" vertex="1" parent="1">
          <mxGeometry x="40" y="450" width="160" height="80" as="geometry" />
        </mxCell>
        <mxCell id="Ua37z2g9hgZjBx6iVy2N-21" value="ID&lt;br&gt;Type_Name" style="text;strokeColor=none;fillColor=none;align=left;verticalAlign=top;spacingLeft=4;spacingRight=4;overflow=hidden;points=[[0,0.5],[1,0.5]];portConstraint=eastwest;rotatable=0;whiteSpace=wrap;html=1;" vertex="1" parent="Ua37z2g9hgZjBx6iVy2N-20">
          <mxGeometry y="30" width="140" height="160" as="geometry" />
        </mxCell>
        <mxCell id="Ua37z2g9hgZjBx6iVy2N-24" value="o;n" style="edgeLabel;html=1;align=center;verticalAlign=middle;resizable=0;points=[];" vertex="1" connectable="0" parent="1">
          <mxGeometry x="626.5247387288855" y="180.43739800878416" as="geometry">
            <mxPoint x="-492" y="257" as="offset" />
          </mxGeometry>
        </mxCell>
        <mxCell id="Ua37z2g9hgZjBx6iVy2N-26" value="User" style="swimlane;whiteSpace=wrap;html=1;" vertex="1" parent="1">
          <mxGeometry x="340" y="-190" width="160" height="190" as="geometry" />
        </mxCell>
        <mxCell id="Ua37z2g9hgZjBx6iVy2N-27" value="ID&lt;br&gt;Name&lt;br&gt;Email&lt;br&gt;&lt;br&gt;" style="text;strokeColor=none;fillColor=none;align=left;verticalAlign=top;spacingLeft=4;spacingRight=4;overflow=hidden;points=[[0,0.5],[1,0.5]];portConstraint=eastwest;rotatable=0;whiteSpace=wrap;html=1;" vertex="1" parent="Ua37z2g9hgZjBx6iVy2N-26">
          <mxGeometry y="30" width="140" height="140" as="geometry" />
        </mxCell>
        <mxCell id="Ua37z2g9hgZjBx6iVy2N-32" style="edgeStyle=orthogonalEdgeStyle;rounded=0;orthogonalLoop=1;jettySize=auto;html=1;exitX=0.5;exitY=1;exitDx=0;exitDy=0;entryX=0.5;entryY=0;entryDx=0;entryDy=0;endArrow=none;endFill=0;" edge="1" parent="1" source="Ua37z2g9hgZjBx6iVy2N-28" target="Ua37z2g9hgZjBx6iVy2N-7">
          <mxGeometry relative="1" as="geometry" />
        </mxCell>
        <mxCell id="Ua37z2g9hgZjBx6iVy2N-41" value="0;n" style="edgeLabel;html=1;align=center;verticalAlign=middle;resizable=0;points=[];" vertex="1" connectable="0" parent="Ua37z2g9hgZjBx6iVy2N-32">
          <mxGeometry x="0.4702" relative="1" as="geometry">
            <mxPoint x="17" y="14" as="offset" />
          </mxGeometry>
        </mxCell>
        <mxCell id="Ua37z2g9hgZjBx6iVy2N-28" value="Dive_Site_Ratings" style="rhombus;whiteSpace=wrap;html=1;" vertex="1" parent="1">
          <mxGeometry x="20" y="-135" width="200" height="80" as="geometry" />
        </mxCell>
        <mxCell id="Ua37z2g9hgZjBx6iVy2N-34" style="edgeStyle=orthogonalEdgeStyle;rounded=0;orthogonalLoop=1;jettySize=auto;html=1;exitX=0;exitY=0.5;exitDx=0;exitDy=0;entryX=1;entryY=0.5;entryDx=0;entryDy=0;endArrow=none;endFill=0;" edge="1" parent="1" source="Ua37z2g9hgZjBx6iVy2N-29" target="Ua37z2g9hgZjBx6iVy2N-26">
          <mxGeometry relative="1" as="geometry" />
        </mxCell>
        <mxCell id="Ua37z2g9hgZjBx6iVy2N-43" value="0;n" style="edgeLabel;html=1;align=center;verticalAlign=middle;resizable=0;points=[];" vertex="1" connectable="0" parent="Ua37z2g9hgZjBx6iVy2N-34">
          <mxGeometry x="0.3127" y="-7" relative="1" as="geometry">
            <mxPoint x="-21" y="19" as="offset" />
          </mxGeometry>
        </mxCell>
        <mxCell id="Ua37z2g9hgZjBx6iVy2N-35" style="edgeStyle=orthogonalEdgeStyle;rounded=0;orthogonalLoop=1;jettySize=auto;html=1;exitX=0.5;exitY=1;exitDx=0;exitDy=0;entryX=0.5;entryY=0;entryDx=0;entryDy=0;endArrow=none;endFill=0;" edge="1" parent="1" source="Ua37z2g9hgZjBx6iVy2N-29" target="Ua37z2g9hgZjBx6iVy2N-9">
          <mxGeometry relative="1" as="geometry" />
        </mxCell>
        <mxCell id="Ua37z2g9hgZjBx6iVy2N-44" value="0;n" style="edgeLabel;html=1;align=center;verticalAlign=middle;resizable=0;points=[];" vertex="1" connectable="0" parent="Ua37z2g9hgZjBx6iVy2N-35">
          <mxGeometry x="0.3133" y="-2" relative="1" as="geometry">
            <mxPoint x="-19" y="25" as="offset" />
          </mxGeometry>
        </mxCell>
        <mxCell id="Ua37z2g9hgZjBx6iVy2N-29" value="Animal_Ratings" style="rhombus;whiteSpace=wrap;html=1;" vertex="1" parent="1">
          <mxGeometry x="620" y="-135" width="200" height="80" as="geometry" />
        </mxCell>
        <mxCell id="Ua37z2g9hgZjBx6iVy2N-30" value="Occurance_Count" style="ellipse;whiteSpace=wrap;html=1;" vertex="1" parent="1">
          <mxGeometry x="360" y="250" width="120" height="30" as="geometry" />
        </mxCell>
        <mxCell id="Ua37z2g9hgZjBx6iVy2N-33" style="edgeStyle=orthogonalEdgeStyle;rounded=0;orthogonalLoop=1;jettySize=auto;html=1;exitX=1;exitY=0.5;exitDx=0;exitDy=0;entryX=0;entryY=0.5;entryDx=0;entryDy=0;endArrow=none;endFill=0;" edge="1" parent="1" source="Ua37z2g9hgZjBx6iVy2N-28" target="Ua37z2g9hgZjBx6iVy2N-26">
          <mxGeometry relative="1" as="geometry" />
        </mxCell>
        <mxCell id="Ua37z2g9hgZjBx6iVy2N-42" value="0;n" style="edgeLabel;html=1;align=center;verticalAlign=middle;resizable=0;points=[];" vertex="1" connectable="0" parent="Ua37z2g9hgZjBx6iVy2N-33">
          <mxGeometry x="-0.1559" y="-3" relative="1" as="geometry">
            <mxPoint x="45" y="12" as="offset" />
          </mxGeometry>
        </mxCell>
      </root>
    </mxGraphModel>
  </diagram>
</mxfile>
